<svg width="170" height="73" viewBox="0 0 170 73" fill="none" xmlns="http://www.w3.org/2000/svg">
<g clip-path="url(#clip0_3425_2573)">
<path d="M169.81 14.7399C169.35 8.1399 164.62 5.1499 160.22 5.1499H18.44C14.04 5.1499 8.53 8.3799 6.5 14.7399C6.5 14.7399 0 22.7499 0 36.8599C0 50.9699 6.5 58.1199 6.5 58.1199C7.91 63.4399 14.24 67.7099 18.44 67.7099H160.22C164.42 67.7099 169.35 65.5299 169.81 58.1199C169.81 58.1199 170 50.9699 170 36.8599C170 22.7499 169.81 14.7399 169.81 14.7399Z" fill="url(#paint0_linear_3425_2573)"/>
<path d="M17.2 64.92C15.09 64.92 9.48 61.9 8.25 57.45C8.22 57.35 1.88 50.36 1.88 36.86C1.88 23.36 8.25001 15.39 8.27001 15.31C10.63 7.91996 16.17 7.91996 17.2 7.91996H161.52C162.55 7.91996 167.81 7.83996 168.06 15.33C168.06 15.39 168.14 23.26 168.14 36.85C168.14 50.44 168.09 57.34 168.09 57.41C168.05 62.37 165.36 64.46 161.52 64.9H17.2V64.92Z" fill="#CFD8E2"/>
<path d="M17.1999 63.2199C15.8099 63.2199 10.9199 60.7099 9.87995 56.9999C9.61995 56.1799 3.56995 49.3399 3.56995 36.8599C3.56995 23.6199 9.86995 15.8899 9.88995 15.8199C11.5199 10.7099 14.7699 9.62988 17.1999 9.62988H161.52C163.46 9.62988 166.39 11.6299 166.44 15.8599C166.44 15.9199 166.44 23.6699 166.44 36.8699C166.44 50.0699 166.48 56.8199 166.48 56.8899C166.51 60.6299 163.4 63.3099 161.53 63.2299H17.1999V63.2199Z" fill="white"/>
<path d="M13.07 18.5399L16.8 9.63989C14.42 9.75989 11.43 10.9799 9.89004 15.8199C9.88004 15.8699 7.28004 19.0599 5.42004 24.8399C8.09004 24.7299 11.26 23.4299 13.07 18.5399Z" fill="#CFD8E2"/>
<path d="M6.39001 24.07C7.85001 19.95 9.63001 17.29 10.37 16.3L10.44 16.21L10.53 16.02C11.55 12.84 13.3 10.97 15.75 10.45L12.46 18.29C11.2 21.68 9.17001 23.62 6.39001 24.08V24.07Z" fill="white"/>
<path d="M14.0101 14.59L15.7501 10.45C13.7701 10.87 12.2401 12.18 11.1901 14.35C12.0801 14.49 13.0401 14.59 14.0101 14.6V14.59Z" fill="#64C29C"/>
<path d="M13.0699 54.28C11.2399 49.33 8.00995 48.06 5.31995 47.98C7.12995 53.43 9.70995 56.47 9.87995 57.01C10.8299 60.43 15.0599 62.83 16.8099 63.18L13.0799 54.28H13.0699Z" fill="#CFD8E2"/>
<path d="M15.5999 62.03C13.7999 61.17 11.2099 59.3 10.5199 56.82C10.4499 56.59 10.2999 56.36 9.92992 55.8C9.13992 54.61 7.57992 52.24 6.28992 48.72C9.11992 49.15 11.1899 51.09 12.4499 54.5L15.5999 62.02V62.03Z" fill="white"/>
<path d="M11.2899 58.46C12.3899 60.12 14.2299 61.37 15.5999 62.03L14.0099 58.23C13.0699 58.23 12.1499 58.33 11.2899 58.46Z" fill="#64C29C"/>
<path d="M33.72 11.27H159.77V12.76H48.79L33.72 11.27Z" fill="#BAC5D1"/>
<path d="M33.72 61.6899H159.77V60.1899H48.79L33.72 61.6899Z" fill="#BAC5D1"/>
<path d="M33.8299 60.6499L36.8699 72.8199C36.8699 72.8199 29.3299 68.5299 33.8299 60.6499Z" fill="#636D7C"/>
<path d="M33.8299 12.17L36.8699 0C36.8699 0 29.3299 4.29 33.8299 12.17Z" fill="#636D7C"/>
<path d="M48.5901 15.5801L31.0601 12.3601C28.3401 12.3601 26.3901 19.0701 25.1301 23.0001C25.1301 23.0001 23.5701 27.9601 23.5701 36.6901C23.5701 45.4201 25.1301 49.8401 25.1301 49.8401C26.0601 52.6001 28.4601 60.4801 31.0601 60.4801L48.5901 57.2601V15.5801Z" fill="#072129"/>
<path d="M25.1201 22.9901C25.1201 22.9901 23.5601 27.9501 23.5601 36.6801C23.5601 45.4101 25.1201 49.8301 25.1201 49.8301C26.0501 52.5901 28.4501 60.4701 31.0501 60.4701L35.5201 59.6501C36.3601 58.2001 37.0301 56.4701 37.4301 54.8501C37.4301 54.8501 39.0201 48.6901 39.0201 36.5201C39.0201 24.3501 37.4301 17.4501 37.4301 17.4501C37.0501 15.8201 36.6001 14.4301 36.0901 13.2901L31.0401 12.3601C28.3201 12.3601 26.3601 19.0701 25.1101 23.0001L25.1201 22.9901Z" fill="#25333A"/>
</g>
<defs>
<linearGradient id="paint0_linear_3425_2573" x1="85" y1="5.1499" x2="85" y2="67.7099" gradientUnits="userSpaceOnUse">
<stop stop-color="#BAC5D1"/>
<stop offset="1" stop-color="#636D7C"/>
</linearGradient>
<clipPath id="clip0_3425_2573">
<rect width="170" height="72.82" fill="white"/>
</clipPath>
</defs>
</svg>
