<?xml version="1.0" encoding="UTF-8"?>
<svg id="Layer_1" xmlns="http://www.w3.org/2000/svg" version="1.1" viewBox="0 0 890 200">
  <!-- Generator: Adobe Illustrator 29.6.1, SVG Export Plug-In . SVG Version: 2.1.1 Build 9)  -->
  <defs>
    <style>
      .st0 {
        fill: #1c1c1c;
        fill-rule: evenodd;
      }
    </style>
  </defs>
  <path class="st0" d="M188.8,174.98h-102.6c-25.84,0-46.79-20.95-46.79-46.79v-57.62c0-25.84,20.95-46.79,46.79-46.79h102.6c.99,0,1.8.81,1.8,1.8v32.4c0,.99-.81,1.8-1.8,1.8h-104.29c-5.03,0-9.1,4.07-9.1,9.1v60.99c0,5.03,4.07,9.1,9.1,9.1h104.29c.99,0,1.8.81,1.8,1.8v32.4c0,.99-.81,1.8-1.8,1.8Z"/>
  <path class="st0" d="M804.92,68.89v60.98c0,5.03,4.08,9.1,9.1,9.1h34.77c.99,0,1.8.81,1.8,1.8v32.4c0,.99-.81,1.8-1.8,1.8h-122.4c-.99,0-1.8-.81-1.8-1.8v-32.4c0-.99.81-1.8,1.8-1.8h33.43c5.03,0,9.1-4.08,9.1-9.1v-60.98c0-5.03-4.08-9.1-9.1-9.1h-33.43c-.99,0-1.8-.81-1.8-1.8V25.59c0-.99.81-1.8,1.8-1.8h122.4c.99,0,1.8.81,1.8,1.8v32.4c0,.99-.81,1.8-1.8,1.8h-34.77c-5.03,0-9.1,4.08-9.1,9.1Z"/>
  <path class="st0" d="M703.04,89.37v-18.79c0-25.84-20.95-46.79-46.79-46.79h-96.71c-.99,0-1.8.81-1.8,1.8v147.59c0,.99.81,1.8,1.8,1.8h32.4c.99,0,1.8-.81,1.8-1.8v-37.19c0-1.04.85-1.89,1.89-1.89h42.34c.73,0,1.4.41,1.74,1.06l19.99,38.84c.31.6.93.98,1.6.98h38.64c1.38,0,2.25-1.49,1.56-2.69l-23.22-40.78c-.5-.87-.19-2,.7-2.47,14.29-7.47,24.05-22.44,24.05-39.67ZM595.53,59.79h62.38c5.04,0,9.12,4.08,9.12,9.12v20.12c0,5.01-4.06,9.07-9.07,9.07h-62.44c-.99,0-1.79-.8-1.79-1.79v-34.72c0-.99.8-1.79,1.79-1.79Z"/>
  <path class="st0" d="M534.19,89.37v-18.79c0-25.84-20.95-46.79-46.79-46.79h-96.71c-.99,0-1.8.81-1.8,1.8v147.59c0,.99.81,1.8,1.8,1.8h32.4c.99,0,1.8-.81,1.8-1.8v-37.19c0-1.04.85-1.89,1.89-1.89h42.34c.73,0,1.4.41,1.74,1.06l19.99,38.84c.31.6.93.98,1.6.98h38.64c1.38,0,2.25-1.49,1.56-2.69l-23.22-40.78c-.5-.87-.19-2,.7-2.47,14.29-7.47,24.05-22.44,24.05-39.67ZM426.68,59.79h62.38c5.04,0,9.12,4.08,9.12,9.12v20.12c0,5.01-4.06,9.07-9.07,9.07h-62.44c-.99,0-1.79-.8-1.79-1.79v-34.72c0-.99.8-1.79,1.79-1.79Z"/>
  <path class="st0" d="M365.34,25.59v102.6c0,25.84-20.95,46.79-46.79,46.79h-57.62c-25.84,0-46.79-20.95-46.79-46.79V25.59c0-.99.81-1.8,1.8-1.8h32.4c.99,0,1.8.81,1.8,1.8v104.29c0,5.03,4.07,9.1,9.1,9.1h60.99c5.03,0,9.1-4.07,9.1-9.1V25.59c0-.99.81-1.8,1.8-1.8h32.4c.99,0,1.8.81,1.8,1.8Z"/>
</svg>