<svg width="306" height="35" viewBox="0 0 306 35" fill="none" xmlns="http://www.w3.org/2000/svg">
<path d="M287.746 19.5305C287.746 17.7558 288.119 16.1679 288.866 14.7668C289.637 13.3657 290.7 12.2682 292.054 11.4742C293.432 10.6569 295.02 10.2483 296.818 10.2483C298.639 10.2483 300.227 10.692 301.581 11.5793C302.959 12.4667 303.998 13.6926 304.699 15.2572C305.423 16.7984 305.75 18.5498 305.68 20.5113H292.299C292.393 22.1459 292.836 23.4302 293.63 24.3643C294.447 25.275 295.545 25.7303 296.923 25.7303C297.974 25.7303 298.826 25.4618 299.48 24.9247C300.134 24.3876 300.612 23.6754 300.916 22.788H305.329C304.816 24.6095 303.823 26.0806 302.352 27.2015C300.904 28.3224 299.083 28.8828 296.888 28.8828C295.09 28.8828 293.502 28.4858 292.124 27.6919C290.746 26.8746 289.672 25.7537 288.902 24.3292C288.131 22.9048 287.746 21.3052 287.746 19.5305ZM301.196 17.7441C300.986 16.3897 300.496 15.3272 299.725 14.5566C298.978 13.7627 298.009 13.3657 296.818 13.3657C295.603 13.3657 294.611 13.7627 293.84 14.5566C293.093 15.3272 292.626 16.3897 292.439 17.7441H301.196Z" fill="white"/>
<path d="M286.236 22.3677C285.839 24.446 284.905 26.0573 283.434 27.2015C281.986 28.3224 280.165 28.8828 277.97 28.8828C276.195 28.8828 274.619 28.4858 273.241 27.6919C271.864 26.8746 270.789 25.7537 270.019 24.3292C269.272 22.9048 268.898 21.3052 268.898 19.5305C268.898 17.7558 269.272 16.1679 270.019 14.7668C270.789 13.3657 271.852 12.2682 273.206 11.4742C274.584 10.6569 276.16 10.2483 277.935 10.2483C280.13 10.2483 281.963 10.8204 283.434 11.9646C284.905 13.1089 285.839 14.6968 286.236 16.7283H281.788C281.554 15.7009 281.111 14.9069 280.457 14.3465C279.826 13.7627 279.009 13.4708 278.005 13.4708C276.604 13.4708 275.518 14.0312 274.747 15.1521C273.977 16.2496 273.592 17.7091 273.592 19.5305C273.592 21.3753 273.977 22.8581 274.747 23.979C275.518 25.0998 276.604 25.6603 278.005 25.6603C280.013 25.6603 281.274 24.5628 281.788 22.3677H286.236Z" fill="white"/>
<path d="M254.689 13.5058C255.973 11.3341 257.911 10.2483 260.503 10.2483C262.395 10.2483 263.842 10.7854 264.846 11.8595C265.874 12.9337 266.388 14.3932 266.388 16.238V28.4625H261.939V17.2187C261.939 16.0745 261.682 15.2105 261.169 14.6267C260.655 14.0196 259.826 13.716 258.682 13.716C257.537 13.716 256.592 14.1363 255.845 14.977C255.121 15.8176 254.759 16.9268 254.759 18.3046V28.4625H250.345V10.5986H254.689V13.5058Z" fill="white"/>
<path d="M229.8 19.5305C229.8 17.7558 230.174 16.1679 230.921 14.7668C231.692 13.3657 232.754 12.2682 234.108 11.4742C235.486 10.6569 237.074 10.2483 238.872 10.2483C240.694 10.2483 242.281 10.692 243.636 11.5793C245.014 12.4667 246.053 13.6926 246.753 15.2572C247.477 16.7984 247.804 18.5498 247.734 20.5113H234.354C234.447 22.1459 234.891 23.4302 235.685 24.3643C236.502 25.275 237.599 25.7303 238.977 25.7303C240.028 25.7303 240.88 25.4618 241.534 24.9247C242.188 24.3876 242.667 23.6754 242.97 22.788H247.384C246.87 24.6095 245.878 26.0806 244.406 27.2015C242.959 28.3224 241.137 28.8828 238.942 28.8828C237.144 28.8828 235.556 28.4858 234.178 27.6919C232.801 26.8746 231.727 25.7537 230.956 24.3292C230.185 22.9048 229.8 21.3052 229.8 19.5305ZM243.251 17.7441C243.04 16.3897 242.55 15.3272 241.779 14.5566C241.032 13.7627 240.063 13.3657 238.872 13.3657C237.658 13.3657 236.665 13.7627 235.895 14.5566C235.148 15.3272 234.681 16.3897 234.494 17.7441H243.251Z" fill="white"/>
<path d="M218.794 34.8374C216.459 34.8374 214.556 34.347 213.085 33.3663C211.637 32.3855 210.773 31.1012 210.493 29.5133H215.011C215.221 30.2839 215.642 30.8793 216.272 31.2997C216.926 31.7434 217.778 31.9652 218.829 31.9652C220.137 31.9652 221.106 31.6149 221.736 30.9144C222.367 30.2138 222.682 29.1513 222.682 27.7269V25.2049C222.145 26.209 221.409 26.968 220.475 27.4817C219.565 27.9954 218.467 28.2523 217.183 28.2523C215.665 28.2523 214.346 27.867 213.225 27.0964C212.104 26.3258 211.24 25.2633 210.633 23.9089C210.025 22.5312 209.722 20.9666 209.722 19.2153C209.722 17.4873 210.025 15.9461 210.633 14.5917C211.263 13.2373 212.139 12.1748 213.26 11.4042C214.381 10.6336 215.688 10.2483 217.183 10.2483C218.444 10.2483 219.541 10.5285 220.475 11.0889C221.409 11.6494 222.145 12.4317 222.682 13.4358V10.5986H227.13V26.8162C227.13 29.4316 226.43 31.4164 225.029 32.7708C223.651 34.1486 221.573 34.8374 218.794 34.8374ZM218.584 24.9948C219.915 24.9948 220.954 24.481 221.701 23.4536C222.449 22.4028 222.822 20.99 222.822 19.2153C222.822 17.4873 222.437 16.1095 221.666 15.0821C220.919 14.0312 219.891 13.5058 218.584 13.5058C217.276 13.5058 216.249 14.0312 215.501 15.0821C214.754 16.1095 214.381 17.4873 214.381 19.2153C214.381 20.99 214.754 22.4028 215.501 23.4536C216.249 24.481 217.276 24.9948 218.584 24.9948Z" fill="white"/>
<path d="M207.041 3.59302V7.79629H202.627V3.59302H207.041ZM207.041 10.5985V28.4624H202.627V10.5985H207.041Z" fill="white"/>
<path d="M199.071 3.59302V28.4624H194.657V3.59302H199.071Z" fill="white"/>
<path d="M191.101 3.59302V28.4624H186.687V3.59302H191.101Z" fill="white"/>
<path d="M166.142 19.5305C166.142 17.7558 166.516 16.1679 167.263 14.7668C168.034 13.3657 169.096 12.2682 170.45 11.4742C171.828 10.6569 173.416 10.2483 175.214 10.2483C177.036 10.2483 178.623 10.692 179.978 11.5793C181.356 12.4667 182.395 13.6926 183.095 15.2572C183.819 16.7984 184.146 18.5498 184.076 20.5113H170.696C170.789 22.1459 171.233 23.4302 172.027 24.3643C172.844 25.275 173.941 25.7303 175.319 25.7303C176.37 25.7303 177.222 25.4618 177.876 24.9247C178.53 24.3876 179.009 23.6754 179.312 22.788H183.726C183.212 24.6095 182.22 26.0806 180.748 27.2015C179.301 28.3224 177.479 28.8828 175.284 28.8828C173.486 28.8828 171.898 28.4858 170.52 27.6919C169.143 26.8746 168.069 25.7537 167.298 24.3292C166.527 22.9048 166.142 21.3052 166.142 19.5305ZM179.593 17.7441C179.382 16.3897 178.892 15.3272 178.121 14.5566C177.374 13.7627 176.405 13.3657 175.214 13.3657C174 13.3657 173.007 13.7627 172.237 14.5566C171.49 15.3272 171.023 16.3897 170.836 17.7441H179.593Z" fill="white"/>
<path d="M160.925 13.646V23.3136C160.925 24.0842 161.041 24.6096 161.275 24.8898C161.532 25.1467 162.022 25.2751 162.746 25.2751H164.848V28.4626H161.31C159.535 28.4626 158.286 28.0889 157.562 27.3417C156.861 26.5711 156.511 25.3335 156.511 23.6288V13.646H153.849V10.5987H156.511V5.83496H160.925V10.5987H164.848V13.646H160.925Z" fill="white"/>
<path d="M140.371 13.5058C141.656 11.3341 143.594 10.2483 146.186 10.2483C148.077 10.2483 149.525 10.7854 150.529 11.8595C151.557 12.9337 152.07 14.3932 152.07 16.238V28.4625H147.622V17.2187C147.622 16.0745 147.365 15.2105 146.851 14.6267C146.338 14.0196 145.509 13.716 144.364 13.716C143.22 13.716 142.274 14.1363 141.527 14.977C140.803 15.8176 140.441 16.9268 140.441 18.3046V28.4625H136.028V10.5986H140.371V13.5058Z" fill="white"/>
<path d="M132.286 28.4624H127.487V3.59302H132.286V28.4624Z" fill="white"/>
<path d="M99.9529 19.5305C99.9529 17.7558 100.327 16.1679 101.074 14.7668C101.844 13.3657 102.907 12.2682 104.261 11.4742C105.639 10.6569 107.227 10.2483 109.025 10.2483C110.846 10.2483 112.434 10.692 113.789 11.5793C115.166 12.4667 116.206 13.6926 116.906 15.2572C117.63 16.7984 117.957 18.5498 117.887 20.5113H104.506C104.6 22.1459 105.044 23.4302 105.837 24.3643C106.655 25.275 107.752 25.7303 109.13 25.7303C110.181 25.7303 111.033 25.4618 111.687 24.9247C112.341 24.3876 112.82 23.6754 113.123 22.788H117.537C117.023 24.6095 116.03 26.0806 114.559 27.2015C113.111 28.3224 111.29 28.8828 109.095 28.8828C107.297 28.8828 105.709 28.4858 104.331 27.6919C102.954 26.8746 101.879 25.7537 101.109 24.3292C100.338 22.9048 99.9529 21.3052 99.9529 19.5305ZM113.403 17.7441C113.193 16.3897 112.703 15.3272 111.932 14.5566C111.185 13.7627 110.216 13.3657 109.025 13.3657C107.811 13.3657 106.818 13.7627 106.048 14.5566C105.3 15.3272 104.833 16.3897 104.647 17.7441H113.403Z" fill="white"/>
<path d="M99.3713 10.5986V14.5917H97.655C96.0904 14.5917 94.9345 14.9537 94.1873 15.6776C93.44 16.4015 93.0547 17.6391 93.0314 19.3905V28.4625H88.6179V10.5986H92.9263V13.9262C93.2999 12.9455 93.9187 12.1515 94.7827 11.5444C95.6701 10.9139 96.7909 10.5986 98.1453 10.5986H99.3713Z" fill="white"/>
<path d="M76.8711 28.8828C75.0731 28.8828 73.4852 28.4858 72.1074 27.6919C70.753 26.8746 69.6905 25.7654 68.9199 24.3643C68.1727 22.9398 67.7991 21.3286 67.7991 19.5305C67.7991 17.7558 68.1727 16.1679 68.9199 14.7668C69.6905 13.3657 70.753 12.2682 72.1074 11.4742C73.4852 10.6569 75.0731 10.2483 76.8711 10.2483C78.6692 10.2483 80.2454 10.6569 81.5998 11.4742C82.9775 12.2682 84.04 13.3657 84.7873 14.7668C85.5579 16.1679 85.9432 17.7558 85.9432 19.5305C85.9432 21.3286 85.5579 22.9398 84.7873 24.3643C84.04 25.7654 82.9775 26.8746 81.5998 27.6919C80.2454 28.4858 78.6692 28.8828 76.8711 28.8828ZM76.8711 25.6603C78.2489 25.6603 79.323 25.0998 80.0936 23.979C80.8642 22.8581 81.2495 21.3753 81.2495 19.5305C81.2495 17.7091 80.8642 16.2496 80.0936 15.1521C79.323 14.0312 78.2489 13.4708 76.8711 13.4708C75.4934 13.4708 74.4192 14.0312 73.6486 15.1521C72.878 16.2496 72.4927 17.7091 72.4927 19.5305C72.4927 21.3753 72.878 22.8581 73.6486 23.979C74.4192 25.0998 75.4934 25.6603 76.8711 25.6603Z" fill="white"/>
<path d="M55.2965 28.8829C52.8913 28.8829 50.7664 28.3458 48.9216 27.2716C47.0768 26.1741 45.6524 24.6562 44.6483 22.7181C43.6441 20.7565 43.1421 18.5265 43.1421 16.0279C43.1421 13.5292 43.6441 11.3109 44.6483 9.37268C45.6524 7.41115 47.0768 5.8933 48.9216 4.81913C50.7664 3.72161 52.8913 3.17285 55.2965 3.17285C57.2347 3.17285 58.9627 3.54648 60.4806 4.29372C61.9984 5.04097 63.2361 6.06844 64.1935 7.37612C65.1509 8.68381 65.8047 10.1666 66.155 11.8246H61.2162C60.8892 10.4468 60.212 9.34933 59.1846 8.53202C58.1571 7.69137 56.8611 7.27104 55.2965 7.27104C53.8021 7.27104 52.506 7.64467 51.4085 8.39191C50.3344 9.13916 49.5054 10.1783 48.9216 11.5093C48.3612 12.817 48.0809 14.3232 48.0809 16.0279C48.0809 17.7325 48.3612 19.2504 48.9216 20.5814C49.5054 21.8891 50.3344 22.9165 51.4085 23.6638C52.506 24.411 53.8021 24.7847 55.2965 24.7847C56.9312 24.7847 58.2388 24.376 59.2196 23.5587C60.2237 22.7414 60.8892 21.6322 61.2162 20.2311H66.155C65.6413 22.7998 64.4387 24.8898 62.5472 26.501C60.6791 28.0889 58.2622 28.8829 55.2965 28.8829Z" fill="white"/>
<path fill-rule="evenodd" clip-rule="evenodd" d="M12.8301 0.633684C14.2819 -0.210827 16.0756 -0.210978 17.5273 0.633684L28.0352 6.74794C29.4725 7.58425 30.3574 9.12214 30.3574 10.7851V23.0751C30.3574 24.738 29.4725 26.2759 28.0352 27.1122L17.5273 33.2265C16.0756 34.0711 14.2819 34.0709 12.8301 33.2265L2.32129 27.1122C0.883991 26.2759 1.69852e-05 24.738 0 23.0751V10.7851C0 9.12214 0.883982 7.58425 2.32129 6.74794L12.8301 0.633684ZM16.3525 7.31044C15.6266 6.88808 14.7298 6.88811 14.0039 7.31044L7.48535 11.1034C6.7668 11.5215 6.32437 12.2897 6.32422 13.121V20.7392C6.32439 21.5704 6.76681 22.3387 7.48535 22.7567L14.0039 26.5497C14.7298 26.972 15.6266 26.972 16.3525 26.5497L22.8721 22.7567C23.5904 22.3386 24.0321 21.5703 24.0322 20.7392V13.121C24.0321 12.2899 23.5903 11.5216 22.8721 11.1034L16.3525 7.31044ZM14.5918 11.3847C14.9547 11.1736 15.4027 11.1735 15.7656 11.3847L19.6572 13.6483C20.0166 13.8574 20.2383 14.2424 20.2383 14.6581V19.202C20.2383 19.6178 20.0166 20.0027 19.6572 20.2118L15.7656 22.4765C15.4029 22.6874 14.9546 22.6873 14.5918 22.4765L10.6992 20.2118C10.3399 20.0027 10.1191 19.6178 10.1191 19.202V14.6581C10.1191 14.2424 10.3399 13.8574 10.6992 13.6483L14.5918 11.3847Z" fill="white"/>
<path opacity="0.4" d="M23.077 12.5736L15.167 16.7868V27.0031L22.7502 22.7115C23.4825 22.297 23.9352 21.5207 23.9352 20.6792V13.0888C23.9352 12.6483 23.4658 12.3665 23.077 12.5736Z" fill="black"/>
<path opacity="0.2" d="M7.28037 12.5751L15.167 16.7868V27.0031L6.71727 22.2086C6.53451 22.1049 6.42158 21.911 6.42158 21.7009V13.09C6.42158 12.6492 6.8915 12.3674 7.28037 12.5751Z" fill="black"/>
</svg>
